<?xml version="1.0" standalone="no"?>
<!DOCTYPE svg PUBLIC "-//W3C//DTD SVG 20010904//EN"
 "http://www.w3.org/TR/2001/REC-SVG-20010904/DTD/svg10.dtd">
<svg version="1.0" xmlns="http://www.w3.org/2000/svg"
 width="16.000000pt" height="16.000000pt" viewBox="0 0 16.000000 16.000000"
 preserveAspectRatio="xMidYMid meet">

<g transform="translate(0.000000,16.000000) scale(0.100000,-0.100000)"
fill="#000000" stroke="none">
<path d="M0 80 l0 -80 80 0 80 0 0 80 0 80 -80 0 -80 0 0 -80z m50 16 c0 -46
9 -56 56 -56 13 0 24 -4 24 -10 0 -5 -22 -10 -50 -10 l-50 0 0 60 c0 33 4 60
10 60 6 0 10 -20 10 -44z"/>
</g>
</svg>
